<?xml version="1.0" standalone="no"?>
<!DOCTYPE svg PUBLIC "-//W3C//DTD SVG 20010904//EN"
 "http://www.w3.org/TR/2001/REC-SVG-20010904/DTD/svg10.dtd">
<svg version="1.0" xmlns="http://www.w3.org/2000/svg"
 width="225.000000pt" height="225.000000pt" viewBox="0 0 225.000000 225.000000"
 preserveAspectRatio="xMidYMid meet">

<g transform="translate(0.000000,225.000000) scale(0.100000,-0.100000)"
fill="#000000" stroke="none">
<path d="M1025 2236 c-176 -43 -317 -198 -332 -365 l-6 -61 -147 0 c-133 0
-149 -2 -164 -19 -15 -17 -27 -126 -82 -738 -35 -395 -64 -740 -64 -768 0 -69
36 -140 99 -197 95 -86 63 -82 765 -86 414 -2 636 1 671 8 142 29 255 150 255
272 0 46 -114 1370 -126 1455 -9 70 -16 73 -183 73 l-148 0 -6 60 c-7 86 -54
178 -124 249 -110 109 -262 153 -408 117z m233 -126 c99 -43 192 -172 192
-267 l0 -33 -330 0 -329 0 5 33 c12 65 27 103 60 154 87 128 256 176 402 113z
m-570 -524 c1 -61 8 -116 14 -123 6 -7 23 -13 38 -13 15 0 32 6 38 13 6 7 13
62 14 123 l3 109 330 0 330 0 3 -109 c1 -61 8 -116 14 -123 14 -17 62 -17 76
0 6 7 13 62 14 123 l3 109 113 3 c89 2 112 0 112 -11 0 -7 18 -211 39 -453 22
-241 50 -551 62 -689 13 -142 19 -267 15 -288 -10 -51 -69 -110 -133 -131 -45
-15 -116 -16 -669 -14 l-619 3 -47 28 c-60 35 -90 78 -95 136 -3 25 23 351 56
724 34 373 61 682 61 688 0 6 43 9 113 7 l112 -3 3 -109z"/>
</g>
</svg>
