<?xml version="1.0" standalone="no"?>
<!DOCTYPE svg PUBLIC "-//W3C//DTD SVG 20010904//EN"
 "http://www.w3.org/TR/2001/REC-SVG-20010904/DTD/svg10.dtd">
<svg version="1.0" xmlns="http://www.w3.org/2000/svg"
 width="225.000000pt" height="225.000000pt" viewBox="0 0 225.000000 225.000000"
 preserveAspectRatio="xMidYMid meet">

<g transform="translate(0.000000,225.000000) scale(0.100000,-0.100000)"
fill="#000000" stroke="none">
<path d="M808 2239 c-99 -14 -180 -39 -273 -84 -199 -94 -348 -245 -445 -446
-211 -442 -31 -988 401 -1218 162 -87 297 -116 491 -108 180 7 319 50 460 143
40 27 77 51 82 53 4 2 137 -125 295 -282 193 -193 295 -288 315 -293 63 -15
127 50 111 113 -4 18 -105 127 -291 313 -156 157 -284 289 -284 293 0 4 15 28
34 54 210 293 223 711 30 1023 -196 318 -563 492 -926 439z m308 -199 c302
-77 519 -319 565 -629 22 -153 -2 -286 -78 -441 -39 -80 -61 -109 -138 -186
-79 -80 -104 -98 -195 -142 -269 -130 -553 -104 -789 74 -128 96 -241 272
-276 429 -25 112 -17 292 18 400 64 196 227 375 413 456 143 61 331 77 480 39z"/>
</g>
</svg>
